<!-- <svg width="32px" height="32px" viewBox="0 0 32 32"  xmlns="http://www.w3.org/2000/svg">
<path d="M31.0625 0H22.3125C21.7947 0 21.375 0.41975 21.375 0.9375C21.375 1.45525 21.7947 1.875 22.3125 1.875H28.7992L17.9802 12.694C16.0113 11.0314 13.5443 10.125 10.9375 10.125C8.016 10.125 5.26938 11.2627 3.2035 13.3285C1.13762 15.3943 0 18.141 0 21.0625C0 23.984 1.13769 26.7306 3.2035 28.7965C5.26931 30.8624 8.016 32 10.9375 32C13.859 32 16.6056 30.8623 18.6715 28.7965C20.7374 26.7307 21.875 23.984 21.875 21.0625C21.875 18.4557 20.9686 15.9888 19.306 14.0198L30.125 3.20081V9.6875C30.125 10.2053 30.5447 10.625 31.0625 10.625C31.5803 10.625 32 10.2053 32 9.6875V0.9375C32 0.41975 31.5803 0 31.0625 0ZM17.3457 27.4707C15.634 29.1823 13.3582 30.125 10.9375 30.125C8.51681 30.125 6.241 29.1823 4.52931 27.4707C2.81769 25.759 1.875 23.4832 1.875 21.0625C1.875 18.6418 2.81769 16.366 4.52931 14.6543C6.241 12.9427 8.51681 12 10.9375 12C13.3582 12 15.634 12.9427 17.3457 14.6543C19.0573 16.366 20 18.6418 20 21.0625C20 23.4832 19.0573 25.759 17.3457 27.4707Z" />
</svg> -->
<svg aria-hidden="true" style="position: absolute; width: 0; height: 0; overflow: hidden;" version="1.1" xmlns="http://www.w3.org/2000/svg" xmlns:xlink="http://www.w3.org/1999/xlink">
<defs>
<symbol id="icon-male" >
<path d="M31.0625 0H22.3125C21.7947 0 21.375 0.41975 21.375 0.9375C21.375 1.45525 21.7947 1.875 22.3125 1.875H28.7992L17.9802 12.694C16.0113 11.0314 13.5443 10.125 10.9375 10.125C8.016 10.125 5.26938 11.2627 3.2035 13.3285C1.13762 15.3943 0 18.141 0 21.0625C0 23.984 1.13769 26.7306 3.2035 28.7965C5.26931 30.8624 8.016 32 10.9375 32C13.859 32 16.6056 30.8623 18.6715 28.7965C20.7374 26.7307 21.875 23.984 21.875 21.0625C21.875 18.4557 20.9686 15.9888 19.306 14.0198L30.125 3.20081V9.6875C30.125 10.2053 30.5447 10.625 31.0625 10.625C31.5803 10.625 32 10.2053 32 9.6875V0.9375C32 0.41975 31.5803 0 31.0625 0ZM17.3457 27.4707C15.634 29.1823 13.3582 30.125 10.9375 30.125C8.51681 30.125 6.241 29.1823 4.52931 27.4707C2.81769 25.759 1.875 23.4832 1.875 21.0625C1.875 18.6418 2.81769 16.366 4.52931 14.6543C6.241 12.9427 8.51681 12 10.9375 12C13.3582 12 15.634 12.9427 17.3457 14.6543C19.0573 16.366 20 18.6418 20 21.0625C20 23.4832 19.0573 25.759 17.3457 27.4707Z" />
</symbol>
<symbol id="icon-female" >
<path d="M19.6875 9.6875C19.6875 4.34581 15.3417 0 10 0C4.65831 0 0.3125 4.34581 0.3125 9.6875C0.3125 14.7129 4.15906 18.8564 9.0625 19.3295V25.75H5.625C5.10725 25.75 4.6875 26.1698 4.6875 26.6875C4.6875 27.2052 5.10725 27.625 5.625 27.625H9.0625V31.0625C9.0625 31.5802 9.48225 32 10 32C10.5177 32 10.9375 31.5802 10.9375 31.0625V27.625H14.375C14.8927 27.625 15.3125 27.2052 15.3125 26.6875C15.3125 26.1698 14.8927 25.75 14.375 25.75H10.9375V19.3295C15.8409 18.8564 19.6875 14.7129 19.6875 9.6875ZM2.1875 9.6875C2.1875 5.37969 5.69219 1.875 10 1.875C14.3078 1.875 17.8125 5.37969 17.8125 9.6875C17.8125 13.9953 14.3078 17.5 10 17.5C5.69219 17.5 2.1875 13.9953 2.1875 9.6875Z" />
</symbol>
<symbol id="icon-other" >
<path d="M28.1252 5.73699e-06H22.5002C21.9825 5.73699e-06 21.5627 0.419756 21.5627 0.937506C21.5627 1.45526 21.9825 1.87501 22.5002 1.87501H25.8619L20.8024 6.93451C19.184 5.72026 17.1746 5.00001 15.0002 5.00001C12.8258 5.00001 10.8164 5.72026 9.19801 6.93451L7.12408 4.86051L8.99314 4.3597C9.49326 4.2257 9.79001 3.71163 9.65601 3.21151C9.52201 2.71145 9.00801 2.41451 8.50783 2.54863L6.63876 3.04945L7.13958 1.18038C7.27358 0.680256 6.97683 0.166193 6.4767 0.0321933C5.97633 -0.101932 5.46245 0.194943 5.32851 0.695069L4.8277 2.56413L3.56776 1.30426C3.20164 0.938131 2.60801 0.938131 2.24195 1.30426C1.87583 1.67038 1.87583 2.26394 2.24195 2.63007L3.50189 3.89001L1.63283 4.39082C1.1327 4.52482 0.835952 5.03888 0.969952 5.53901C1.08214 5.95788 1.46095 6.23414 1.87489 6.23414C1.9552 6.23414 2.03683 6.2237 2.11814 6.20195L3.9872 5.70114L3.48639 7.5702C3.35239 8.07032 3.64914 8.58439 4.14926 8.71839C4.23058 8.7402 4.31214 8.75058 4.39251 8.75058C4.80645 8.75058 5.18526 8.47432 5.29745 8.05545L5.79826 6.18639L7.81208 8.2002C6.25945 9.91876 5.3127 12.1946 5.3127 14.6875C5.3127 19.713 9.15926 23.8564 14.0627 24.3295V27H11.2502C10.7325 27 10.3127 27.4198 10.3127 27.9375C10.3127 28.4553 10.7325 28.875 11.2502 28.875H14.0627V31.0625C14.0627 31.5803 14.4825 32 15.0002 32C15.518 32 15.9377 31.5803 15.9377 31.0625V28.875H18.7502C19.268 28.875 19.6877 28.4553 19.6877 27.9375C19.6877 27.4198 19.268 27 18.7502 27H15.9377V24.3295C20.8411 23.8565 24.6877 19.713 24.6877 14.6875C24.6877 12.1946 23.741 9.9187 22.1884 8.20014L27.1877 3.20082V6.56251C27.1877 7.08026 27.6075 7.50001 28.1252 7.50001C28.643 7.50001 29.0627 7.08026 29.0627 6.56251V0.937506C29.0627 0.419756 28.643 5.73699e-06 28.1252 5.73699e-06ZM22.8127 14.6875C22.8127 18.9953 19.308 22.5 15.0002 22.5C10.6924 22.5 7.1877 18.9953 7.1877 14.6875C7.1877 10.3797 10.6924 6.87501 15.0002 6.87501C19.308 6.87501 22.8127 10.3797 22.8127 14.6875Z" />
</symbol>
</defs>
</svg>
